<?xml version="1.0" encoding="UTF-8" standalone="no"?>
<!-- Created with Inkscape (http://www.inkscape.org/) -->

<svg
   xmlns:dc="http://purl.org/dc/elements/1.1/"
   xmlns:cc="http://creativecommons.org/ns#"
   xmlns:rdf="http://www.w3.org/1999/02/22-rdf-syntax-ns#"
   xmlns:svg="http://www.w3.org/2000/svg"
   xmlns="http://www.w3.org/2000/svg"
   xmlns:sodipodi="http://sodipodi.sourceforge.net/DTD/sodipodi-0.dtd"
   xmlns:inkscape="http://www.inkscape.org/namespaces/inkscape"
   width="744.09448819"
   height="1052.3622047"
   id="svg2"
   version="1.1"
   inkscape:version="0.48.5 r10040"
   sodipodi:docname="z.svg">
  <sodipodi:namedview
     id="base"
     pagecolor="#ffffff"
     bordercolor="#666666"
     borderopacity="1.0"
     inkscape:pageopacity="0.0"
     inkscape:pageshadow="2"
     inkscape:zoom="0.35"
     inkscape:cx="386.42858"
     inkscape:cy="514.28571"
     inkscape:document-units="px"
     inkscape:current-layer="svg2"
     showgrid="false"
     inkscape:window-width="1366"
     inkscape:window-height="724"
     inkscape:window-x="0"
     inkscape:window-y="0"
     inkscape:window-maximized="1" />
  <defs
     id="defs4" />
  <metadata
     id="metadata7">
    <rdf:RDF>
      <cc:Work
         rdf:about="">
        <dc:format>image/svg+xml</dc:format>
        <dc:type
           rdf:resource="http://purl.org/dc/dcmitype/StillImage" />
        <dc:title></dc:title>
      </cc:Work>
    </rdf:RDF>
  </metadata>
  <g
     id="layer1"
     inkscape:groupmode="layer"
     inkscape:label="Layer 1" />
  <path
     id="path5578"
     d="M 637.814289905,538.0764947 C 637.814289905,520.130146679 634.168618726,502.191009139 627.151886806,485.639623592 C 620.135154887,469.088238044 609.752880891,453.937927721 596.787089196,441.359056471 C 583.8212975,428.780185221 568.282185267,418.782950205 551.340134731,412.149357593 C 534.398084194,405.515764981 516.066418588,402.251333436 497.725697983,402.630655368 C 479.384977379,403.009977299 461.049622741,407.033052708 444.100194316,414.425253307 C 427.150765891,421.817453907 411.600586911,432.573261034 398.620040136,445.910632646 C 385.639493361,459.248004258 375.238775951,475.156743194 368.199913157,492.46644974 C 361.161050362,509.776156285 357.489560846,528.473507208 357.460056268,547.177925141 C 357.430551691,565.882343074 361.043032051,584.579407055 368.022888481,601.888539731 C 375.002744911,619.197672406 385.344458747,635.105550544 398.266007528,648.44177447 C 411.18755631,661.777998397 426.678742876,672.53237095 443.56918726,679.922850157 C 460.459631643,687.313329363 478.736010609,691.334396559 497.017766701,691.711423553 C 515.299522793,692.088450548 533.572235048,688.82143734 550.455346179,682.184976463 C 567.33845731,675.548515586 582.818644086,665.548125703 595.725527057,652.965813132 C 608.632410029,640.383500562 618.955792035,625.229462464 625.913651484,608.674062865 C 632.871510933,592.118663266 636.45832916,574.175225398 636.39949851,556.224290974 C 636.340667861,538.27335655 632.636188334,520.329346535 625.560673151,503.772802667 C 618.485157967,487.2162588 608.04412579,472.060504314 595.019603775,459.475903315 C 581.995081761,446.891302316 566.39726707,436.888051966 549.396544714,430.248158717 C 532.395822359,423.608265469 514.00551557,420.337247986 495.606187196,420.70969899 C 477.206858821,421.082149994 458.812929823,425.098069485 441.80496322,432.482829515 C 424.796996616,439.867589545 409.188315639,450.615671451 396.149305814,463.945033556 C 383.110295989,477.274395661 372.651154476,493.174840804 365.55390929,510.475969662 C 358.456664103,527.77709852 354.726833906,546.465587861 354.639033116,565.160860737 C 354.551232326,583.856133614 358.105460944,602.543769063 365.027112855,619.843190178 C 371.948764766,637.142611293 382.232321307,653.040494841 395.095762768,666.366441621 C 407.959204229,679.692388401 423.39233345,690.436201251 440.224773207,697.815838698 C 457.057212964,705.195476144 475.275640024,709.205419523 493.49949967,709.571041169 C 511.723359316,709.936662815 529.938230585,706.657962729 546.763558926,700.009533994 C 563.588887268,693.36110526 579.011349449,683.34846654 591.860568752,670.753624735 C 604.709788055,658.158782929 614.975567319,642.991935197 621.875887674,626.42344617 C 628.776208029,609.854957143 632.305550812,591.898150054 632.189311085,573.933567248 C 632.073071359,555.968984442 628.311249124,538.011046883 621.17846031,521.440296969 C 614.045671497,504.869547056 603.547434769,489.699308021 590.465779988,477.099944657 C 577.384125208,464.500581292 561.729249535,454.482290758 544.671540681,447.827080219 C 527.613831826,441.171869681 509.166613022,437.885257802 490.710449806,438.241838041 C 472.254286589,438.59841828 453.803599924,442.598190637 436.738955511,449.966527928 C 419.674311098,457.334865219 404.00903217,468.066248781 390.913506929,481.378637725 C 377.817981688,494.69102667 367.302407294,510.574223837 360.14881443,527.85783072 C 352.995221565,545.141437603 349.209128894,563.812130968 349.065153494,582.489334711 C 348.921178094,601.166538454 352.419319965,619.835831611 359.284975647,637.116638143 C 366.150631329,654.397444674 376.378282157,670.276441348 389.185911065,683.583229856 C 401.993539974,696.890018364 417.370949802,707.614401545 434.147765962,714.974338843 C 450.924582122,722.334276141 469.08748138,726.324248892 487.255911645,726.669630376 C 505.424341911,727.01501186 523.58388222,723.715802077 540.353980639,717.046595081 C 557.124079059,710.377388085 572.491412356,700.34370254 585.28560642,687.727546338 C 598.079800483,675.111390137 608.290658152,659.922960441 615.136163155,643.3326229 C 621.981668157,626.74228536 625.456301829,608.763363208 625.285461822,590.776399837 C 625.114621814,572.789436466 621.298308127,554.808852839 614.111139267,538.215192426 C 606.923970408,521.621532012 596.37146504,506.428118046 583.235655592,493.805316413 C 570.099846144,481.18251478 554.390929777,471.140522641 537.279296755,464.461348284 C 520.167663734,457.782173926 501.66663729,454.471336012 483.156785508,454.803429147 C 464.646933725,455.135522282 446.142677566,459.110546465 429.024585266,466.453875683 C 411.906492965,473.797204902 396.187887755,484.503320491 383.03916036,497.790182759 C 369.890432965,511.077045028 359.321780544,526.934456814 352.115236291,544.192020831 C 344.908692038,561.449584848 341.069774616,580.093977863 340.873103601,598.744625014 C 340.676432585,617.395272165 344.122007978,636.037752489 350.935228802,653.291491215 C 357.748449626,670.545229941 367.923797218,686.396903835 380.679256986,699.676115883 C 393.434716754,712.95532793 408.760091536,723.65188097 425.485009206,730.983735761 C 442.209926876,738.315590553 460.321064201,742.277228432 478.437871536,742.59402402 C 496.554678871,742.910819607 514.662735253,739.582772902 531.381491184,732.884479323 C 548.100247115,726.186185744 563.416379363,716.123163955 576.159516236,703.477423235 C 588.902653109,690.831682515 599.062597447,675.613420026 605.857335386,658.99300283 C 612.652073326,642.372585634 616.076086202,624.363336963 615.854774059,606.345801644 C 615.633461917,588.328266325 611.766824756,570.31686532 604.529483464,553.692143558 C 597.292142171,537.067421795 586.689615412,521.842702508 573.503937978,509.188353063 C 560.318260545,496.534003618 544.559629599,486.460221176 527.398437756,479.749015526 C 510.237245913,473.037809877 491.686816406,469.694699684 473.127719653,469.994281078 C 454.5686229,470.293862471 436.015279865,474.236135451 418.848261103,481.546475553 C 401.68124234,488.856815655 385.913871084,499.529704215 372.716540364,512.783103112 C 359.519209643,526.03650201 348.902116619,541.860214083 341.647296774,559.083843639 C 334.392476929,576.307473196 330.505448926,594.917697002 330.260834618,613.533941812 C 330.01622031,632.150186622 333.414019697,650.758031472 340.179634061,667.97690323 C 346.945248426,685.195774989 357.073159105,701.012350421 369.781353749,714.256234172 C 382.489548394,727.500117924 397.767829843,738.161112832 414.445828195,745.45718134 C 431.123826548,752.753249847 449.188218573,756.67887329 467.258456835,756.95942799 C 485.328695097,757.239982691 503.390358634,753.87546865 520.062900141,747.140483009 C 536.735441648,740.405497368 552.005537892,730.305558791 564.702819361,717.622678305 C 577.400100829,704.939797818 587.514370361,689.684172583 594.263616251,673.026171428 C 601.012862142,656.368170273 604.391565728,638.321116431 604.125129197,620.265556516 C 603.858692665,602.2099966 599.947116016,584.160351575 592.665022261,567.497168175 C 585.382928507,550.833984775 574.735836311,535.570586234 561.505782576,522.877341748 C 548.27572884,510.184097262 532.472910725,500.071203992 515.267722936,493.320673577 C 498.062535147,486.570143163 479.468300918,483.187494267 460.865592737,483.447324889 C 442.262884557,483.707155512 423.666123388,487.609465653 406.455881841,494.879632738 C 389.245640294,502.149799823 373.435241601,512.782305189 360.195080826,525.995112623 C 346.954920051,539.207920058 336.295194355,554.990832401 328.997941237,572.173455887 C 321.700688119,589.356079373 317.771426242,607.92509077 317.484779456,626.499918782 C 317.19813267,645.074746793 320.554100975,663.640970455 327.278087631,680.818018603 C 334.002074288,697.995066751 344.088560634,713.769616152 356.755536278,726.971273437 C 369.422511922,740.172930722 384.659779704,750.79149873 401.296971663,758.04494191 C 417.934163621,765.298385089 435.957956524,769.181184776 453.987804857,769.418719318 C 472.017653191,769.65625386 490.039135991,766.248523257 506.671707855,759.470126696 C 523.304279718,752.691730134 538.534617412,742.548186278 551.192353302,729.821508215 C 563.850089193,717.094830152 573.92502612,701.795215044 580.635154239,685.093033799 C 587.345282358,668.390852554 590.685083006,650.299428405 590.379960208,632.199310064 C 590.074837411,614.099191724 586.124791168,596.004800155 578.804446312,579.296684209 C 571.484101457,562.588568264 560.798976652,547.280051174 547.531110597,534.541504272 C 534.263244542,521.802957369 518.422834399,511.644577814 501.18027665,504.848379396 C 483.937718902,498.052180978 465.30633678,494.623682361 446.666704533,494.837483714 C 428.027072285,495.051285066 409.393610875,498.907386388 392.146894647,506.13116729 C 374.900178418,513.354948191 359.053530604,523.940890009 345.777347983,537.106958733 C 332.501165362,550.273027458 321.805645095,566.009025928 314.472826373,583.144562598 C 307.140007651,600.280099269 303.175409138,618.801850906 302.853656354,637.329248449 C 302.53190357,655.856645992 305.852996515,674.375268477 312.5423401,691.504546991 C 319.231683685,708.633825504 329.283759247,724.360436812 341.916558022,737.513989814 C 354.549356797,750.667542816 369.752681626,761.237840351 386.356166151,768.442849148 C 402.959650676,775.647857946 420.949971665,779.482059343 438.946585188,779.670833985 C 456.943198711,779.859608628 474.931683804,776.402956516 491.531496624,769.575479149 C 508.131309444,762.748001782 523.329126758,752.555217823 535.95458247,739.779142691 C 548.580038182,727.003067558 558.622935132,711.653898412 565.30126499,694.902008506 C 571.979594849,678.150118599 575.287838953,660.008831164 574.95140282,641.858697272 C 574.614966688,623.708563379 570.633850319,605.564003991 563.282680015,588.805570333 C 555.931509712,572.047136675 545.215804137,556.68815198 531.917603437,543.898989963 C 518.619402738,531.109827947 502.748904073,520.900685771 485.476505351,514.053579626 C 468.204106629,507.206473481 449.543131081,503.72692203 430.874154354,503.889527856 C 412.205177627,504.052133682 393.542620684,507.856896785 376.267059245,515.029199203 C 358.991497807,522.201501621 343.116255105,532.73582469 329.811729272,545.850136843 C 316.507203438,558.964448995 305.783591633,574.64855307 298.422934377,591.732059976 C 291.062277121,608.815566881 287.070093077,627.285153385 286.721009069,645.760252891 C 286.371925062,664.235352397 289.665941092,682.701543943 296.328463351,699.778261093 C 302.990985609,716.854978244 313.016495432,732.528897766 325.622985314,745.629631051 C 338.229475195,758.730364336 353.406747974,769.247714222 369.984438527,776.399649944 C 386.562129079,783.551585665 404.526914173,787.332588558 422.498251084,787.468041786 C 440.469587995,787.603495013 458.433055761,784.093398574 475.008111721,777.212356496 C 491.58316768,770.331314418 506.756488601,760.084845364 519.357709546,747.25496729 C 531.958930491,734.425089216 541.977854299,719.021999284 548.632473776,702.216073295 C 555.287093252,685.410147306 558.571889733,667.214708493 558.212269847,649.010310487 C 557.85264996,630.805912481 553.848613705,612.606976246 546.474788467,595.794055577 C 539.10096323,578.981134908 528.362867673,563.567553038 515.042543003,550.723686265 C 501.722218332,537.879819493 485.829861708,527.61586498 468.53587207,520.713841508 C 451.241882433,513.811818036 432.559583014,510.277244268 413.86955047,510.384725391 C 395.179517925,510.492206513 376.496173217,514.241742525 359.20009305,521.358718076 C 341.904012882,528.475693627 326.008520488,538.954590054 312.684014956,552.013378409 C 299.359509423,565.072166765 288.616187913,580.700649888 281.236091878,597.728441318 C 273.855995842,614.756232747 269.844643944,633.17000925 269.476663915,651.589206871 C 269.108683887,670.008404492 272.384075727,688.418602267 279.028246509,705.43923641 C 285.672417291,722.459870553 295.679848351,738.077617831 308.268533037,751.122092291 C 320.857217723,764.16656675 336.016958874,774.62757123 352.577392196,781.723077629 C 369.137825517,788.818584029 387.085627777,792.543073684 405.040257054,792.621932429 C 422.994886332,792.700791174 440.941921664,789.13401901 457.500821167,782.196222642 C 474.05972067,775.258426275 489.217161112,764.955124369 501.802778305,752.068337567 C 514.388395499,739.181550765 524.391992284,723.721476228 531.03156219,706.858492454 C 537.671132096,689.995508679 540.94115646,671.7429389 540.567042608,653.481339449 C 540.192928755,635.219739998 536.174676686,616.963531838 528.786914458,600.093271473 C 521.39915223,583.223011108 510.647398507,567.752021771 497.313695139,554.850682476 C 483.979991771,541.949343181 468.07453592,531.627851088 450.767727144,524.668227702 C 433.460918368,517.708604316 414.766079901,514.116368299 396.063788989,514.166127564 C 377.361498077,514.215886828 358.666175685,517.907641374 341.358399081,524.966778583 C 324.050622478,532.025915793 308.143714896,542.446917002 294.808075964,555.447756001 C 281.472437032,568.448595001 270.718263911,584.019074631 263.327598566,600.988811171 C 255.93693322,617.958547712 251.915294314,636.314217931 251.537310066,654.675260621 C 251.159325817,673.036303311 254.424996226,691.388297508 261.059728823,708.350682178 C 267.694461421,725.313066848 277.692737544,740.872518759 290.272550974,753.858654712 C 302.852364404,766.844790666 318.00351798,777.247413503 334.555647813,784.284497881 C 351.107777647,791.32158226 369.047560504,794.987609517 386.994454846,795.007968253 C 404.941349188,795.028326988 422.88093405,791.403017201 439.432667902,784.406648367 C 455.984401754,777.410279533 471.134961362,767.048370315 483.713982866,754.10294413 C 496.293004371,741.157517944 506.29029061,725.638771951 512.923835413,708.717087423 C 519.557380216,691.795402894 522.821664919,673.484103063 522.442097118,655.163747039 C 522.062529318,636.843391014 518.039109015,618.52839976 510.646464511,601.599332561 C 503.253820007,584.670265361 492.497469965,569.140445449 479.159456455,556.18025462 C 465.821442944,543.22006379 449.911963125,532.839699205 432.601416748,525.821185151 C 415.29087037,518.802671097 396.592580667,515.151526238 377.887125048,515.142361271 C 359.181669429,515.133196304 340.483468858,518.766011229 323.17310074,525.766196217 C 305.862732623,532.766381204 289.953520193,543.12841759 276.615863187,556.070281952 C 263.27820618,569.012146315 252.522301758,584.523641495 245.130191968,601.434386562 C 237.738082178,618.345131628 233.715285683,636.64180335 233.336430756,654.943843308 C 232.957575829,673.245883266 236.22266247,691.538870498 242.857098238,708.442246759 C 249.491534006,725.34562302 259.489800238,740.846065079 272.069890715,753.773192527 C 284.649981192,766.700319976 299.801698754,777.043935655 316.354679485,784.022017013 C 332.907660216,791.000098372 350.848580884,794.607126747 368.796899893,794.568493527 C 386.745218903,794.529860307 404.686515292,790.845565493 421.240247447,783.790221349 C 437.793979602,776.734877205 452.946824291,766.314002395 465.528417545,753.309623122 C 478.110010799,740.305243849 488.110155457,724.727557274 494.746845213,707.746947456 C 501.383534969,690.766337639 504.651251158,672.396127811 504.275401216,654.016879869 C 503.899551275,635.637631928 499.880135202,617.263766835 492.49178111,600.275846659 C 485.103427019,583.287926484 474.351653573,567.699274459 461.018502623,554.680275161 C 447.685351674,541.661275864 431.781020382,531.222126455 414.475908253,524.144854003 C 397.170796125,517.067581551 378.478226394,513.357704719 359.778776198,513.289836981 C 341.079326003,513.221969243 322.387416308,516.7961106 305.083624221,523.737653996 C 287.779832134,530.679197392 271.877480888,540.982624163 258.546969897,553.86591366 C 245.216458905,566.749203157 234.467985328,582.20215822 227.083590861,599.054400687 C 219.699196394,615.906643153 215.684399701,634.144849792 215.313828676,652.388464949 C 214.943257652,670.632080106 218.216912295,688.866682818 224.86019976,705.711717603 C 231.503487226,722.556752388 241.51088885,737.998896013 254.100397983,750.867770828 C 266.689907116,763.736645643 281.851326597,774.022054488 298.414292051,780.941977565 C 314.977257505,787.861900642 332.9284457,791.410819287 350.887314556,791.314127639 C 368.846183412,791.21743599 386.798311965,787.475134047 403.363158092,780.361836818 C 419.928004218,773.248539589 435.092244685,762.769765737 447.685514985,749.707544205 C 460.278785284,736.645322672 470.290888256,721.009850619 476.939817027,703.971514837 C 483.588745798,686.933179055 486.868981704,668.505302778 486.50593159,650.068450628 C 486.142881475,631.631598478 482.13654534,613.200191417 474.761550677,596.154794237 C 467.386556014,579.109397057 456.648421488,563.463332989 443.329188305,550.386989327 C 430.009955122,537.310645665 414.119820444,526.814219569 396.829183104,519.679740815 C 379.538545764,512.545262061 360.860728996,508.778249314 342.176309241,508.653318749 C 323.491889487,508.528388184 304.81528771,512.045539801 287.527080295,518.930169241 C 270.23887288,525.814798681 254.35238306,536.061387279 241.038009497,548.887917073 C 227.723635934,561.714446868 216.99157579,577.110720699 209.623869982,593.906363086 C 202.256164175,610.702005473 198.258331369,628.883693183 197.904998657,647.070873235 C 197.551665944,665.258053288 200.842833324,683.43630472 207.503907124,700.225074714 C 214.164980923,717.013844707 224.190442478,732.39981003 236.798284285,745.212595688 C 249.406126091,758.025381347 264.586150989,768.25479018 281.167993722,775.11880504 C 297.749836456,781.9828199 315.720173794,785.475922122 333.698462749,785.323508484 C 351.676751705,785.171094846 369.648571316,781.373165347 386.233378526,774.204337625 C 402.818185736,767.035509904 418.002657312,756.501302624 430.616427791,743.383747349 C 443.23019827,730.266192074 453.26307049,714.575485963 459.933036597,697.482018422 C 466.603002704,680.388550881 469.904544034,661.905645142 469.563066423,643.41386843 C 469.221588812,624.922091717 465.237092259,606.435864995 457.884203226,589.335755645 C 450.531314194,572.235646294 439.815551345,556.534977549 426.518954828,543.404139284 C 413.222358311,530.273301018 397.355125287,519.722490394 380.087653509,512.533739758 C 362.82018173,505.344989122 344.165794429,501.523817139 325.50506694,501.344842546 C 306.844339451,501.165867952 288.191692737,504.629090749 270.92770205,511.459909126 C 253.663711364,518.290727503 237.801699938,528.483622796 224.512065276,541.256579583 C 211.222430614,554.02953637 200.515369879,569.37235749 193.172922806,586.114669991 C 185.830475733,602.856982491 181.858160987,620.98546314 181.530604453,639.119561472 C 181.203047919,657.253659804 184.520249596,675.378954857 191.20761458,692.114896316 C 197.894979564,708.850837776 207.946989192,724.184102409 220.581634703,736.944317716 C 233.216280214,749.704533023 248.423364447,759.881501843 265.032520869,766.693209506 C 281.641677292,773.504917169 299.63958267,776.945845012 317.645692716,776.741392279 C 335.651802762,776.536939546 353.651696511,772.687106237 370.264829581,765.466512445 C 386.87796265,758.245918653 402.091011808,747.660083042 414.733610237,734.491039615 C 427.376208666,721.321996189 437.438159207,705.579942108 444.137452629,688.435269206 C 450.83674605,671.290596303 454.16786369,652.756627812 453.856209984,634.213933371 C 453.544556277,615.67123893 449.590131226,597.134239502 442.267559868,579.983504872 C 434.944988511,562.832770241 424.25978951,547.081623641 410.994001571,533.900457331 C 397.728213631,520.719291022 381.892033913,510.118302166 364.6558587,502.879525483 C 347.419683487,495.6407488 328.796836011,491.769702954 310.167890116,491.541009042 C 291.538944221,491.312315129 272.91832087,494.72597315 255.6865938,501.507383638 C 238.45486673,508.288794126 222.625359174,518.432438418 209.3684671,531.15630342 C 196.111575026,543.880168421 185.437495595,559.174056972 178.128266984,575.867598434 C 170.819038373,592.561139896 166.880179246,610.641011037 166.586313906,628.726663689 C 166.292448565,646.812316342 169.643577012,664.889329544 176.365102736,681.577155266 C 183.086628461,698.264980987 193.173032799,713.550295995 205.842305365,726.262730055 C 218.511577931,738.975164116 233.753521563,749.10452007 250.397768081,755.868785498 C 267.042014598,762.633050926 285.075240768,766.026707166 303.116900629,765.775155696 C 321.158560491,765.523604227 339.194233082,761.626845048 355.843372327,754.359500472 C 372.492511572,747.092155896 387.741794237,736.459744587 400.420851795,723.244302752 C 413.099909353,710.028860916 423.198544642,694.240585715 429.934746697,677.049871167 C 436.670948752,659.859156618 440.03919891,641.279325954 439.764899852,622.690950985 C 439.490600794,604.102576015 435.573752519,585.520077702 428.288978291,568.324027981 C 421.004204062,551.12797826 410.357022543,535.331700363 397.129470639,522.105588687 C 383.901918735,508.879477011 368.104193607,498.233728717 350.906689719,490.950380641 C 333.709185832,483.667032566 315.125226418,479.751603374 296.535383481,479.47871626 C 277.945540544,479.205829146 259.364235048,482.57548411 242.172038871,489.313083767 C 224.979842693,496.050683423 209.190079067,506.150709109 195.973142081,518.831149793 C 182.756205095,531.511590477 172.122291909,546.762248998 164.853438803,563.412756763 C 157.584585696,580.063264528 153.686311331,598.100298304 153.433238093,616.143311951 C 153.180164855,634.186325598 156.572292743,652.220898153 163.335023309,668.866483592 C 170.097753875,685.512069031 180.225568455,700.755344121 192.936454705,713.425940619 C 205.647340955,726.096537116 220.931101714,736.18425786 237.617366822,742.9070924 C 254.30363193,749.629926941 272.379078155,752.982356615 290.46315754,752.689784852 C 308.547236925,752.39721309 326.625528507,748.45963989 343.317484196,741.151689494 C 360.009439884,733.843739099 375.301736447,723.170930173 388.024003319,709.915300833 C 400.746270192,696.659671493 410.888310214,680.831418899 417.668110368,663.600938961 C 424.447910522,646.370459023 427.859952145,627.751074974 427.629635846,609.123360491 C 427.399319548,590.495646009 423.526645328,571.874022056 416.28623436,554.639062419 C 409.045823392,537.404102783 398.443194339,521.569130694 385.260382,508.304542379 C 372.077569662,495.039954065 356.324771198,484.355946686 339.17237895,477.034558889 C 322.019986701,469.713171092 303.4813239,465.759921541 284.936960409,465.449435219 C 266.392596918,465.138948897 247.8569537,468.471225805 230.710600474,475.171670324 C 213.564247248,481.872114843 197.820507246,491.93520831 184.64977238,504.578941441 C 171.479037515,517.222674571 160.891504947,532.436850205 153.669208761,549.051101474 C 146.446912575,565.665352742 142.595371434,583.666356411 142.389205513,601.673568047 C 142.183039592,619.680779682 145.62224889,637.67977832 152.432232733,654.290019619 C 159.242216576,670.900260918 169.4174563,686.108421646 182.175937317,698.744135217 C 194.934418335,711.379848789 210.265943486,721.432918044 227.000140351,728.121334173 C 243.734337216,734.809750302 261.857882563,738.12799464 279.990226161,737.801472234 C 298.122569759,737.474949828 316.249290645,733.503660677 332.989838437,726.162230619 C 349.73038623,718.820800561 365.071437696,708.114748259 377.842619968,694.826113401 C 390.613802239,681.537478544 400.804918155,665.676458293 407.633952378,648.413450107 C 414.4629866,631.15044192 417.924420464,612.49876903 417.743652246,593.839006643 C 417.562884028,575.179244256 413.739913726,556.525813336 406.549360164,539.25928917 C 399.358806602,521.992765005 388.806188444,506.126470827 375.673538122,492.830804346 C 362.5408878,479.535137864 346.838402476,468.820296238 329.73647211,461.468319574 C 312.634541745,454.11634291 294.14648957,450.132749871 275.652883056,449.792166875 C 257.159276541,449.45158388 238.674536649,452.754010928 221.579230692,459.424853813 C 204.483924735,466.095696699 188.791375946,476.129436758 175.671973815,488.744066095 C 162.552571683,501.358695432 152.016513372,516.544016886 144.845830529,533.129664953 C 137.675147687,549.71531302 133.875358979,567.687964466 133.72108213,585.667076198 C 133.566805281,603.646187929 137.058040292,621.617338983 143.920184028,638.199986333 C 150.782327763,654.782633684 161.00986156,669.963454099 173.820768358,682.572082288 C 186.631675156,695.180710476 202.015757794,705.206949277 218.802641369,711.86879115 C 235.589524943,718.530633022 253.765886221,721.822559302 271.951172474,721.46997628 C 290.136458727,721.117393258 308.316248991,717.120300934 325.109990377,709.753326364 C 341.903731763,702.386351795 357.298101037,691.655013645 370.12272281,678.341352798 C 382.947344582,665.027691951 393.192021692,649.141905568 400.074736268,631.85439228 C 406.957450844,614.566878991 410.472684223,595.89096203 410.345832135,577.207217747 C 410.218980047,558.523473464 406.450042491,539.846322823 399.313635736,522.556342236 C 392.177228981,505.266361649 381.67887169,489.376874347 368.60059373,476.058279135 C 355.522315771,462.739683924 339.874314303,452.002177964 322.826976713,444.627802431 C 305.779639123,437.253426898 287.346288642,433.247700457 268.907490152,432.885250573 C 250.468691662,432.522800688 232.038866127,435.80362736 214.99857826,442.453137405 C 197.958290394,449.102647449 182.320863429,459.115322201 169.256684251,471.709154763 C 156.192505073,484.302987324 145.711770842,499.467780533 138.596510592,516.033169856 C 131.481250342,532.598559179 127.736982737,550.551221384 127.638322878,568.51061432 C 127.539663018,586.470007256 131.086610905,604.421709961 138.004560768,620.98518033 C 144.92251063,637.548650699 155.205943805,652.710565499 168.072840589,665.300560333 C 180.939737373,677.890555167 196.379900604,687.898432873 213.222952728,694.542186781 C 230.066004851,701.185940688 248.298622634,704.460052131 266.540250688,704.089928244 C 284.781878741,703.719804357 303.018096101,699.70544514 319.86834721,692.321478465 C 336.718598319,684.93751179 352.169559943,674.189456321 365.050854015,660.859353735 C 377.932148088,647.529251149 388.233577449,631.627298606 395.173121543,614.323895499 C 402.112665637,597.020492393 405.684805801,578.328961956 405.614935073,559.62988128 C 405.545064345,540.930800603 401.833182726,522.23859065 394.753903785,504.933828544 C 387.674624844,487.629066438 377.233467244,471.725075411 364.212458148,458.392254953 C 351.191449053,445.059434496 335.600785622,434.307981769 318.61085253,426.919938608 C 301.620919437,419.531895448 283.245039915,415.512780518 264.863776128,415.137221916 C 246.48251234,414.761663315 228.11028525,418.029661043 211.127656849,424.666622521 C 194.145028447,431.303583999 178.565321967,441.303990564 165.558921564,453.885835897 C 152.55252116,466.467681229 142.129623993,481.620768169 135.072256362,498.174732734 C 128.014888731,514.7286973 124.3285693,532.67021626 124.287910429,550.618747991 C 124.247251558,568.567279722 127.852253247,586.508403261 134.828306981,603.061577004 C 141.804360716,619.614750747 152.145947831,634.76665146 165.071045875,647.346915221 C 177.996143918,659.927178982 193.494555728,669.925608629 210.395900995,676.560197936 C 227.297246262,683.194787244 245.588201752,686.460017548 263.888209319,686.081296401 C 282.188216885,685.702575254 300.482855564,681.679902657 317.391567034,674.287906876 C 334.300278504,666.895911095 349.809739533,656.140110793 362.749569286,642.802548013 C 375.68939904,629.464985233 386.049400358,613.555857136 393.047549916,596.245563454 C 400.045699474,578.935269772 403.676478608,560.237133738 403.665277584,541.531732756 C 403.65407656,522.826331774 400.000895378,504.128086807 392.980344832,486.817575263 C 385.959794286,469.507063719 375.577393039,453.597608831 362.615165475,440.259610347 C 349.652937911,426.921611864 334.121081191,416.165266945 317.189977207,408.77261766 C 300.258873223,401.379968374 281.941845208,397.356533386 263.619452542,396.976940996 C 245.297059876,396.597348607 226.983723523,399.861598817 210.060002688,406.495099225 C 193.136281854,413.128599633 177.61549977,423.125831577 164.668037807,435.704788885 C 151.720575843,448.283746194 141.35663116,463.434231707 134.358227268,479.985881568 C 127.359823377,496.537531429 123.732478941,514.477022405 123.750803531,532.423812969 C 123.769128122,550.370603533 127.433121739,568.310272721 134.468173079,584.862278999 C 141.503224419,601.414285277 151.903814817,616.565305412 164.88791903,629.144975521 C 177.872023242,641.72464563 193.429444108,651.722768553 210.389798527,658.357338077 C 227.350152946,664.991907602 245.700117684,668.257405065 264.059131805,667.879238006 C 282.418145925,667.501070948 300.771788464,663.479239368 317.739498309,656.088371494 C 334.707208154,648.697503619 350.275662072,637.943118114 363.274476442,624.607256953 C 376.273290811,611.271395791 386.692268471,595.364256135 393.749383307,578.056237623 C 400.806498143,560.748219111 404.496231491,542.052644975 404.543970831,523.350092498 C 404.59171017,504.647540022 400.997455501,485.952430167 394.035814829,468.645340195 C 387.074174156,451.338250223 376.750666145,435.432503365 363.847312395,422.098499196 C 350.943958644,408.764495026 335.470956314,398.012430706 318.598684514,390.6243481 C 301.726412714,383.236265494 283.468194676,379.217683266 265.204587001,378.843229489 C 246.940979325,378.468775711 228.686402975,381.738450386 211.821414377,388.377660853 C 194.956425779,395.016871321 179.494348167,405.020098919 166.605560131,417.605337194 C 153.716772096,430.190575469 143.411470799,445.34762726 136.471676978,461.9061284 C 129.531883158,478.46462954 125.963115477,496.411256797 126.039980737,514.365468305 C 126.116845997,532.319679813 129.839344199,550.267054609 136.93286127,566.827050794 C 144.026378342,583.387046979 154.48539562,598.546341321 167.527885097,611.134569544 C 180.570374574,623.722797768 196.186139089,633.729762713 213.204792782,640.37345775 C 230.223446476,647.017152787 248.631666115,650.292059252 267.048888006,649.923584241 C 285.466109898,649.55510923 303.877913079,645.543252742 320.903733686,638.162642533 C 337.929554294,630.782032324 353.556069095,620.038187058 366.612891722,606.71314821 C 379.669714349,593.388109362 390.146647641,577.492074094 397.261662744,560.195441519 C 404.376677846,542.898808945 408.124256095,524.214902297 408.229782233,505.524298306 C 408.335308371,486.833694315 404.798782399,468.150813943 397.894809593,450.856233874 C 390.990836786,433.561653804 380.72493581,417.668697269 367.879125538,404.347763237 C 355.033315265,391.026829205 339.617792858,380.288114836 322.802934707,372.913661365 C 305.988076556,365.539207895 287.787205894,361.534533985 269.580876607,361.174267052 C 251.374547321,360.81400012 233.177180374,364.098140164 216.369329488,370.752093843 C 199.561478602,377.406047522 184.15646701,387.424296173 171.324670606,400.024832633 C 158.492874201,412.625369092 148.244490145,427.797996199 141.361536483,444.37234905 C 134.478582822,460.9467019 130.966578218,478.909457262 131.10012679,496.880072507 C 131.233675362,514.850687752 135.01277711,532.814741917 142.162815285,549.391692315 C 149.312853459,565.968642712 159.828309397,581.145166109 172.927152423,593.750897417 C 186.025995449,606.356628724 201.698028401,616.381370782 218.772862759,623.043116119 C 235.847697118,629.704861457 254.312009649,632.99809141 272.785234007,632.648212209 C 291.258458365,632.298333007 309.726173588,628.30534465 326.807813167,620.943874001 C 343.889452747,613.582403352 359.571693452,602.857969074 372.684146277,589.552611726 C 385.796599103,576.247254378 396.329066889,560.37117112 403.499518154,543.094760124 C 410.669969419,525.818349128 414.472885501,507.154933627 414.633648524,488.48508938 C 414.794411547,469.815245133 411.313021511,451.153393105 404.464081087,433.880108982 C 397.615140662,416.60682486 387.404168512,400.735431876 374.613180914,387.436327979 C 361.822193316,374.137224083 346.461387431,363.420606434 329.701137061,356.068515223 C 312.940886691,348.716424011 294.79451507,344.7343779 276.642573507,344.397003235 C 258.490631944,344.059628571 240.347541403,347.366925352 223.59385304,354.044299143 C 206.840164676,360.721672934 191.489201722,370.763605071 178.711337515,383.38808727 C 165.933473308,396.01256947 155.738905009,411.209404571 148.90964812,427.808226525 C 142.080391231,444.40704848 138.621964415,462.394534054 138.808969256,480.390139453 C 138.995974097,498.385744851 142.828410594,516.37504911 150.031659478,532.977508346 C 157.234908361,549.579967583 167.803450967,564.782258565 180.95525411,577.414014985 C 194.107057252,590.045771405 209.83192377,600.096796102 226.959462643,606.785080363 C 244.087001516,613.473364625 262.603889512,616.793389787 281.1295578,616.470560811 C 299.655226087,616.147731836 318.175253702,612.182048722 335.309071665,604.848137042 C 352.442889628,597.514225362 368.177174705,586.817603779 381.341535432,573.540311537 C 394.505896159,560.263019295 405.090135375,544.415253555 412.312219151,527.167411148 C 419.534302927,509.91956874 423.3887126,491.284972898 423.600827859,472.644198021 C 423.812943119,454.003423143 420.382763966,435.370890192 413.584890647,418.12717347 C 406.787017328,400.883456747 396.626968507,385.041879486 383.886758054,371.772838224 C 371.146547601,358.503796962 355.836372675,347.81748886 339.126604687,340.495952674 C 322.416836698,333.174416488 304.320798879,329.223170882 286.21904016,328.916840744 C 268.11728144,328.610510607 250.024222783,331.949095938 233.320412978,338.658000821 C 216.616603173,345.366905704 201.315365453,355.440611476 188.587070803,368.097108351 C 175.858776153,380.753605225 165.713621735,395.982696042 158.933620713,412.614013227 C 152.153619691,429.245330412 148.744290728,447.265550731 148.980233087,465.294128842 C 149.216175446,483.322706952 153.097389126,501.345221889 160.349252551,517.981128201 C 167.601115975,534.617034512 178.218110481,549.853008965 191.418200589,562.51868366 C 204.618290697,575.184358354 220.391279247,585.26953613 237.566772944,591.992206658 C 254.74226664,598.714877186 273.306942252,602.069521802 291.880228685,601.781543832 C 310.453515118,601.493565862 329.02099141,597.562965305 346.202086337,590.264366074 C 363.383181265,582.965766843 379.164571594,572.304687602 392.375863632,559.063165912 C 405.587155671,545.821644222 416.218152258,530.009877246 423.486817254,512.798260111 C 430.75548225,495.586642976 434.656296991,476.988498915 434.914638974,458.384400604 C 435.172980956,439.780302293 431.788850179,421.184670694 425.036844713,403.978078363 C 418.284839248,386.771486032 408.170477757,370.967256202 395.475771949,357.735783646 C 382.781066142,344.504311089 367.516213178,333.855792967 350.851582324,326.572266247 C 334.186951469,319.288739528 316.135865957,315.375722875 298.078872592,315.107839369 C 280.021879226,314.839955864 261.97339897,318.217205506 245.313978504,324.96499055 C 228.654558039,331.712775595 213.397520596,341.825577379 200.713235073,354.521384267 C 188.02894955,367.217191156 177.927613107,382.485805988 171.191236837,399.156859321 C 164.454860566,415.827912654 161.088963132,433.888081254 161.368141741,451.956817888 C 161.647320351,470.025554522 165.571575004,488.088438227 172.866282089,504.764921641 C 180.160989174,521.441405054 190.820630026,536.718164944 204.063167152,549.42483148 C 217.305704278,562.131498017 233.120940516,572.25787404 250.338480573,579.021947273 C 267.556020631,585.786020505 286.162541275,589.182272285 304.777469434,588.936103967 C 323.392397594,588.689935649 342.001312307,584.801347234 359.223640388,577.544960648 C 376.44596847,570.288574062 392.268386687,559.669907969 405.520499408,546.470997925 C 418.772612128,533.27208788 429.444222192,517.503131047 436.753291537,500.334520527 C 444.062360882,483.165910008 448.003370845,464.610969036 448.301697022,446.050268243 C 448.600023199,427.48956745 445.255665589,408.937527799 438.543220382,391.774719785 C 431.830775175,374.611911771 421.755761034,358.851658625 409.100187807,345.664353042 C 396.444614581,332.477047459 381.218679428,321.872886599 364.592749776,314.633905332 C 347.966820124,307.394924066 329.954219204,303.526641057 311.935492001,303.303677271 C 293.916764798,303.080713485 275.906332274,306.503068922 259.284739313,313.296143705 C 242.663146352,320.089218487 227.443716185,330.247493951 214.79681593,342.988956312 C 202.149915675,355.730418673 192.085742493,371.04487077 185.386305718,387.761940991 C 178.686868944,404.479011212 175.35768724,422.585376326 175.67335608,440.700486913 C 175.98902492,458.815597501 179.949544302,476.925032598 187.2802889,493.648242643 C 194.611033498,510.371452688 205.306484648,525.695114447 218.584603161,538.448855873 C 231.862721674,551.2025973 247.713310391,561.376221233 264.965972345,568.187713162 C 282.218634299,574.999205092 300.860046259,578.443046353 319.509633503,578.244636054 C 338.159220748,578.046225754 356.802562313,574.205563893 374.059083388,566.997270129 C 391.315604464,559.788976366 407.171981815,549.218569364 420.457818205,536.068082399 C 433.743654595,522.917595433 444.448752862,507.197225665 451.791073362,490.077363901 C 459.133393863,472.957502137 463.107417932,454.451471609 463.438519605,435.939840636 C 463.769621278,417.428209664 460.457800554,398.92539921 453.777652084,381.81197744 C 447.097503614,364.698555671 437.054546061,348.987845819 424.430787758,335.850238235 C 411.807029454,322.71263065 396.612667561,312.158322494 380.018068009,304.969346279 C 363.423468458,297.780370064 345.441954481,293.962244455 327.454069593,293.789588044 C 309.466184705,293.616931634 291.486349868,297.089744422 274.895108519,303.933424146 C 258.30386717,310.777103869 243.11454254,320.986131864 230.497500324,333.778491945 C 217.880458108,346.570852027 207.845895465,361.936347033 201.175820332,378.704602941 C 194.505745198,395.472858848 191.205676237,413.630552424 191.550207544,431.797131821 C 191.89473885,449.963711219 195.883870423,468.124755476 203.242975583,484.899712587 C 210.602080744,501.674669699 221.325640827,517.050216432 234.631615316,529.855978288 C 247.937589805,542.661740144 263.815781539,552.88751996 281.095792247,559.751300761 C 298.375802956,566.615081561 317.044309407,570.111344682 335.720735597,569.96548675 C 354.397161788,569.819628818 373.067086756,566.031649834 390.349934431,558.876166965 C 407.632782106,551.720684096 423.515229256,541.203216006 436.82687741,528.105793466 C 450.138525563,515.008370926 460.86917756,499.341191098 468.236792546,482.274642272 C 475.604407532,465.208093445 479.603466845,446.755498855 479.959343334,428.297424291 C 480.315219823,409.839349727 477.027913489,391.390216153 470.372017822,374.330589197 C 463.716122155,357.270962241 453.697155819,341.614165136 441.097126012,328.530585682 C 428.497096205,315.447006228 413.326200086,304.946841586 396.75480248,297.812121709 C 380.183404873,290.677401831 362.224829011,286.913645383 344.259617322,286.795468385 C 326.294405633,286.677291388 308.336979082,290.204693842 291.767880042,297.103070901 C 275.198781002,304.00144796 260.031332706,314.265280962 247.435899815,327.112551129 C 234.840466924,339.959821296 224.827246597,355.380331467 218.178245761,372.203705016 C 211.529244924,389.027078565 208.249982241,407.239992259 208.615050823,425.461891642 C 208.980119405,443.683791024 212.989519252,461.900255132 220.368622724,478.730729339 C 227.747726196,495.561203547 238.49101463,510.992364621 251.816446576,523.853835433 C 265.141878522,536.715306245 281.039256819,546.996889633 298.338182289,553.916565981 C 315.637107759,560.836242329 334.32425717,564.388492973 353.019053637,564.298711893 C 371.713850105,564.208930813 390.401872667,560.477118009 407.702544397,553.377887993 C 425.003216127,546.278657977 440.903213794,535.817529413 454.232138095,522.776530406 C 467.561062397,509.7355314 478.308716172,494.124859113 485.693057764,477.114899165 C 493.077399356,460.104939216 497.092910102,441.709014839 497.464962074,423.307689144 C 497.837014045,404.90636345 494.565607242,386.514057402 487.925334405,369.51133394 C 481.285061567,352.508610478 471.281441357,336.908792835 458.696480248,323.882266118 C 446.111519138,310.8557394 430.95541429,300.412700769 414.398529825,293.335177475 C 397.84164536,286.257654181 379.897304511,282.551164889 361.946049035,282.490322911 C 343.994793559,282.429480934 326.051044419,286.014286272 309.495343343,292.970131366 C 292.939642267,299.92597646 277.785312487,310.247342646 265.202718044,323.152208426 C 252.6201236,336.057074206 242.619461653,351.53524242 235.982738534,368.416333714 C 229.346015415,385.297425008 226.078749787,403.568116149 226.455534195,421.847849949 C 226.832318603,440.127583749 230.853153046,458.401939244 238.243409344,475.290359072 C 245.633665642,492.178778899 256.387825132,507.667939826 269.72384585,520.58746198 C 283.059866568,533.506984134 298.967551352,543.846670354 316.276500538,550.824498276 C 333.585449724,557.802326198 352.282340078,561.412777158 370.986594258,561.381242383 C 389.690848437,561.349707609 408.388045478,557.676187101 425.697608022,550.635292613 C 443.007170566,543.594398125 458.915775379,533.191648322 472.253022755,520.209068549 C 485.59027013,507.226488776 496.345962905,491.674276195 503.738059045,474.722813661 C 511.130155185,457.771351126 515.153136025,439.43396187 515.532373283,421.091206237 C 515.911610542,402.748450604 512.64710422,384.414749556 506.01344673,367.470663263 C 499.379789239,350.52657697 489.382499244,334.985428665 476.803582917,322.017600679 C 464.22466659,309.049772692 449.074321092,298.665462186 432.522910272,291.646693633 C 415.971499453,284.62792508 398.032346545,280.980217145 380.085993059,280.978180363 C 362.139639574,280.97614358 344.200506475,284.61977795 327.649135271,291.634473129 C 311.097764067,298.649168309 295.947477992,309.029405636 283.368640893,321.993160827 C 270.789803794,334.956916019 260.792612832,350.493991915 254.159074174,367.434006376 C 247.525535516,384.374020837 244.261167826,402.703650631 244.640563511,421.042335781 C 245.019959195,439.38102093 249.043118255,457.714340473 256.435412398,474.661734257 C 263.827706542,491.609128042 274.583617107,507.157272835 287.921102046,520.135785976 C 301.258586986,533.114299116 317.167449138,543.512983442 334.477288782,550.5498138 C 351.787128427,557.586644159 370.484622332,561.256101885 389.189193123,561.283575417 C 407.893763915,561.311048948 426.59099063,557.696538285 443.900295909,550.714652392 C 461.209601188,543.732766499 477.117661798,533.389024039 490.454078056,520.465447569 C 503.790494314,507.541871098 514.545069059,492.048657778 521.935760308,475.156187672 C 529.326451557,458.263717567 533.347740645,439.985313908 533.724999372,421.701534252 C 534.102258099,403.417754595 530.835486464,385.143019903 524.199276988,368.257887557 C 517.563067512,351.37275521 507.562938859,335.890548442 494.980897333,322.981646796 C 482.398855808,310.072745149 467.245098572,299.747345786 450.689989638,292.787470394 C 434.134880703,285.827595002 416.191743303,282.238762245 398.241119135,282.295579873 C 380.290494968,282.352397501 362.346804997,286.054865515 345.790590948,293.12837079 C 329.234376899,300.201876065 314.078962004,310.640899937 301.494710355,323.663415345 C 288.910458705,336.685930753 278.907567461,352.281740537 272.26804306,369.280459779 C 265.628518659,386.279179021 262.357879764,404.667484488 262.730719078,423.064813431 C 263.103558392,441.462142374 267.119875916,459.854073827 274.505043683,476.86004487 C 281.890211449,493.866015913 292.638710795,509.472703311 305.968500025,522.509721634 C 319.298289254,535.546739958 335.199171205,546.003892046 352.500746534,553.099149979 C 369.802321864,560.194407912 388.49126734,563.922253027 407.187005994,564.008070999 C 425.882744647,564.093888972 444.570855515,560.537679801 461.870761667,553.614049696 C 479.17066782,546.690419591 495.069046025,536.404887214 508.395497058,523.53947237 C 521.721948091,510.674057525 532.466274791,495.238957373 539.846435658,478.40454923 C 547.226596525,461.570141086 551.237072896,443.349748185 551.603237081,425.123925336 C 551.969401265,406.898102487 548.691253264,388.681270654 542.043386135,371.853984479 C 535.395519005,355.026698303 525.383451411,339.602281019 512.789190224,326.751109437 C 500.194929037,313.899937854 485.028671418,303.632209135 468.460781968,296.729942239 C 451.892892519,289.827675343 433.936694472,286.296388935 415.972730146,286.410688044 C 398.008765819,286.524987153 380.051456176,290.284871778 363.481343586,297.41572608 C 346.911230995,304.546580382 331.741638691,315.042885698 319.142931432,328.122612257 C 306.544224173,341.202338817 296.526599121,356.855289458 289.87206341,373.911076563 C 283.217527699,390.966863668 279.931599992,409.412164004 280.288873716,427.866412124 C 280.646147439,446.320660244 284.646622593,464.769435186 292.01567196,481.832171338 C 299.384721328,498.894907489 310.116826245,514.558281618 323.42994579,527.651905614 C 336.743065335,540.745529609 352.627002348,551.259206309 369.911358287,558.410905123 C 387.195714225,565.562603936 405.867165857,569.346806199 424.54513704,569.488894922 C 443.223108223,569.630983646 461.893177994,566.130958829 479.174770278,559.263424024 C 496.456362562,552.395889218 512.336154126,542.166363087 525.643746623,529.356862784 C 538.951339121,516.547362482 549.676535391,501.16808517 557.03729484,484.389405524 C 564.398054289,467.610725878 568.388858253,449.445967131 568.735079972,431.275681463 C 569.081301691,413.105395795 565.782941165,394.944004169 559.114592408,378.172058606 C 552.446243651,361.400113043 542.413425326,346.030936775 529.798145287,333.234904002 C 517.182865248,320.438871228 501.995320654,310.22617911 485.405877116,303.378844006 C 468.816433578,296.531508901 450.838414328,293.055049474 432.852362715,293.224068161 C 414.866311102,293.393086847 396.886648089,297.207583647 380.293917103,304.392940138 C 363.701186117,311.578296629 348.508710391,322.128994149 335.886855767,335.263000353 C 323.265001143,348.397006557 313.223964782,364.104124286 306.545754925,381.213963359 C 299.867545068,398.323802432 296.557680379,416.823039616 296.890755415,435.331106915 C 297.223830452,453.839174214 301.199845214,472.341650663 308.544173641,489.457968114 C 315.888502069,506.574285564 326.595625498,522.291120782 339.883504189,535.438083128 C 353.17138288,548.585045474 369.029819672,559.151937788 386.288417229,566.35672696 C 403.547014786,573.561516133 422.192449876,577.3986835 440.844147586,577.593609569 C 459.495845297,577.788535637 478.139384665,574.341220407 495.394190871,567.526264936 C 512.648997076,560.711309464 528.501746885,550.534232416 541.782043231,537.777048464 C 555.062339578,525.019864512 565.7599853,509.692770819 573.092941107,492.966139591 C 580.425896913,476.239508364 584.38864414,458.126662836 584.706557356,440.008152732 C 585.024470571,421.889642628 581.697549774,403.779888911 575.000390329,387.059441161 C 568.303230885,370.33899341 558.241351456,355.021174859 545.59676127,342.276357276 C 532.952171085,329.531539693 517.735067302,319.36992024 501.115816931,312.573512859 C 484.496566559,305.777105479 466.488492831,302.351428836 448.472140517,302.571082963 C 430.455788203,302.790737091 412.445578265,306.65572199 395.822055576,313.891416851 C 379.198532887,321.127111711 363.975020679,331.72799787 351.321886262,344.912040611 C 338.668751845,358.096083352 328.596192381,373.853085514 321.8862176,391.012654558 C 315.176242819,408.172223602 311.834371386,426.721036295 312.135199371,445.278522296 C 312.436027357,463.836008297 316.379554761,482.387746643 323.691157061,499.553166852 C 331.002759361,516.718587062 341.676917892,532.484365903 354.931594474,545.680110422 C 368.186271056,558.87585494 384.011268527,569.491367975 401.236191133,576.744614119 C 418.461113739,583.997860263 437.072638247,587.883320852 455.69019135,588.126374109 C 474.307744453,588.369427365 492.916905188,584.970073288 510.137100359,578.202910669 C 527.357295529,571.43574805 543.175201903,561.306295551 556.420424061,548.596565596 C 569.665646219,535.88683564 580.327987001,520.607025388 587.625408783,503.927504813 C 594.922830565,487.247984238 598.849814685,469.182076571 599.1317374,451.11032932 C 599.413660115,433.038582068 596.050521426,414.975416193 589.31691841,398.301379072 C 582.583315394,381.627341951 572.484766715,366.355756816 559.803283333,353.65699325 C 547.121799951,340.958229684 531.867579027,330.842484849 515.210989324,324.091770518 C 498.554399621,317.341056187 480.508764372,313.960891024 462.454630122,314.225872911 C 444.400495873,314.490854798 426.352283586,318.400983736 409.690539932,325.68163678 C 393.028796277,332.962289823 377.766844487,343.607948309 365.075053689,356.836575404 C 352.383262891,370.065202499 342.271830246,385.866601042 335.522767325,403.070376394 C 328.773704404,420.274151747 325.39252987,438.866980676 325.653841653,457.468290758 C 325.915153436,476.069600841 329.818951536,494.664971114 337.090613308,511.873829034 C 344.36227508,529.082686954 354.99628186,544.891709287 368.210597367,558.130501036 C 381.424912873,571.369292785 397.209339945,582.027656788 414.393484746,589.323555611 C 431.577629547,596.619454434 450.148168845,600.547369414 468.724531269,600.832676764 C 487.300893694,601.117984114 505.868658283,597.760683834 523.047253798,591.035372727 C 540.225849313,584.31006162 556.001952521,574.222258348 569.20516998,561.553973365 C 582.40838744,548.885688381 593.028521989,533.647118846 600.283538002,517.008632783 C 607.538554016,500.370146719 611.422932829,482.34506736 611.662052716,464.313940279 C 611.901172603,446.282813199 608.495033563,428.260059359 601.718234707,411.626224227 C 594.941435852,394.992389094 584.799495844,379.7607959 572.074427697,367.101812337 C 559.34935955,354.442828775 544.051360424,344.366652004 527.350801152,337.655291929 C 510.65024188,330.943931854 492.560445696,327.602907137 474.461961233,327.906813811 C 456.36347677,328.210720484 438.270724992,332.159558547 421.564254673,339.478703226 C 404.857784355,346.797847905 389.550918729,357.481780535 376.814029047,370.748462473 C 364.077139366,384.015144411 353.92042279,399.854378497 347.12589303,417.095768302 C 340.331363271,434.337158107 336.904538992,452.967380399 337.120020282,471.605860985 C 337.335501573,490.244341572 341.193288432,508.876659491 348.418760392,526.122240451 C 355.644232353,543.367821411 366.231870749,559.213342179 379.399641493,572.488406031 C 392.567412236,585.763469883 408.305118166,596.457879657 425.442367655,603.789596216 C 442.579617144,611.121312774 461.10308696,615.084817452 479.632207959,615.405484781 C 498.161328959,615.726152111 516.681680179,612.403982092 533.812692623,605.713569864 C 550.943705067,599.023157637 566.672055503,588.970021864 579.827352747,576.33617136 C 592.982649991,563.702320855 603.554696881,548.497952779 610.761460066,531.893433538 C 617.968223251,515.288914296 621.804184067,497.297567121 621.994723076,479.299935992 C 622.185262086,461.302304863 618.730379289,443.312810744 611.904676103,426.711997524 C 605.078972916,410.111184305 594.887968002,394.91237522 582.113676695,382.28593641 C 569.339385387,369.6594976 553.992004847,359.615626226 537.241908242,352.936330664 C 520.491811637,346.257035102 502.3523222,342.947834016 484.203990915,343.28332193 C 466.055659631,343.618809845 447.912907462,347.598986761 431.156285549,354.949226423 C 414.399663635,362.299466084 399.04249521,373.014249826 386.255153903,386.311537547 C 373.467812596,399.608825268 363.260495569,415.478419807 356.415218926,432.7499233 C 349.569942283,450.021426793 346.092224688,468.681516007 346.256668635,487.34961534 C 346.421112583,506.017714672 350.227718074,524.679403158 357.40186706,541.95410512 C 364.576016046,559.228807081 375.112189862,575.103199284 388.228356854,588.406883639 C 401.344523845,601.710567994 417.030486851,612.43334734 434.115856691,619.793181196 C 451.201226531,627.153015052 469.672679973,631.144384755 488.149650334,631.492663517 C 506.626620694,631.84094228 525.094687009,628.546130104 542.173282757,621.882820833 C 559.251878504,615.219511563 574.92768045,605.193223863 588.030299897,592.585965277 C 601.132919343,579.97870669 611.652159129,564.800674378 618.805988399,548.2222335 C 625.959817669,531.643792622 629.742717759,513.67826641 629.880071742,495.706197624 C 630.017425725,477.734128837 626.509233601,459.769938439 619.630099306,443.194169124 C 612.750965011,426.618399808 602.506407209,411.444374809 589.678443766,398.842459096 C 576.850480323,386.240543382 561.449308399,376.220934116 544.645303707,369.565638524 C 527.841299015,362.910342932 509.647784787,359.624879678 491.445314562,359.983842166 C 473.242844338,360.342804654 455.04583908,364.346192884 438.234852494,371.719379502 C 421.423865908,379.092566119 406.012221227,389.830032461 393.170294657,403.149737351 C 380.328368088,416.469442241 370.06635679,432.361188519 363.166279456,449.654577274 C 356.266202122,466.94796603 352.733577415,485.629674029 352.843010427,504.319124646 C 352.952443439,523.008575263 356.703934171,541.691347534 363.822867179,558.986864784 C 370.941800187,576.282382033 381.422656808,592.177321028 394.483408002,605.501282706 C 407.544159196,618.825244383 423.174607802,629.568031583 440.204367267,636.947602879 C 457.234126731,644.327174174 475.649873821,648.338010902 494.071044486,648.705485354 C 512.492215152,649.072959807 530.904388431,645.797071984 547.927000442,639.152414838 C 564.949612453,632.507757692 580.569339965,622.499849886 593.615796929,609.910698094 C 606.662253894,597.321546302 617.12524315,582.161347685 624.222736503,565.600466559 C 631.320229856,549.039585433 635.046708642,531.091345032 635.127558602,513.136287295 C 635.208408562,495.181229558 631.643629696,477.233775449 624.707828616,460.674466871 C 617.772027536,444.115158294 607.470722906,428.95731848 594.585935275,416.371311636 C 581.701147645,403.785304792 566.243074174,393.781328077 549.382093266,387.141387981 C 532.521112358,380.501447884 514.270547245,377.231063069 496.010954165,377.604826227 C 477.751361085,377.978589386 459.497161002,381.996500516 442.628910324,389.383931578 C 425.760659647,396.771362641 410.291681607,407.52279497 397.392355125,420.856186732 C 384.493028643,434.189578494 374.173550879,450.094732528 367.21594324,467.401249287 C 360.258335602,484.707766047 356.668116753,503.4023223 356.719894511,522.104340812 C 356.771672268,540.806359325 360.465446631,559.501419134 367.526604886,576.808942981 C 374.587763142,594.116466829 385.010786626,610.023131482 398.013649034,623.358537325 C 411.016511443,636.693943168 426.589015615,647.447893038 443.560777735,654.838344983 C 460.532539856,662.228796928 478.890236693,666.250232283 497.253306942,666.628022841 C 515.616377191,667.005813398 533.970399889,663.739959157 550.934813907,657.105052596 C 567.899227924,650.470146034 583.460710027,640.471705815 596.448876924,627.891738165 C 609.437043821,615.311770515 619.841698351,600.160472595 626.880815076,583.6082083 C 633.919931802,567.055944005 637.58799206,549.116036568 637.610384353,531.169027535 C 637.632776647,513.222018503 634.009500976,495.282328838 627.015166719,478.730500078 C 620.020832463,462.178671318 609.660958285,447.028026694 596.717567503,434.448930072 C 583.774176722,421.869833451 568.257466499,411.872481991 551.337818009,405.238881868 C 534.418169519,398.605281746 516.108905995,395.340951624 497.790586452,395.720483909 C 479.472266908,396.100016193 461.159312307,400.123410882 444.232281836,407.516039677 C 427.305251366,414.908668471 411.77746826,425.665012707 398.819314217,439.003030316 C 385.861160173,452.341047925 375.482832354,468.250541747 368.466354949,485.56111203 C 361.449877545,502.871682314 357.800769219,521.570005828 357.793640573,540.275505158 C 357.786511927,558.981004489 361.421362961,577.679258674 368.423583748,594.989690304 C 375.425804535,612.300121934 385.789876411,628.209407777 398.733775859,641.547148092 C 411.677675308,654.884888407 427.191205168,665.640886033 444.103984414,673.03309892 C 461.01676366,680.425311806 479.315469059,684.448221288 497.619542097,684.827199089 C 515.923615136,685.206176889 534.21863485,681.941223009 551.124042901,675.30692988 C 568.029450951,668.672636752 583.531924105,658.67452304 596.46108186,646.094594955 C 609.390239615,633.514666871 619.73588481,618.363121574 626.715994799,601.810322973 C 633.696104788,585.257524371 637.305160908,567.316795698 637.268554452,549.368678538 C 637.231947995,531.420561378 633.549678963,513.479476694 626.496359524,496.92596609 C 619.443040084,480.372455485 609.024188901,465.219842193 596.021832082,452.638490169 C 583.019475264,440.057138146 567.44380997,430.057244552 550.465220165,423.420815685 C 533.48663036,416.784386817 515.118439277,413.516941338 496.741208715,413.8930718 C 478.363978153,414.269202262 459.992129076,418.288908664 443.006223457,425.677562882 C 426.020317838,433.0662171 410.43367891,443.818300468 397.416691155,457.151771122 C 384.3997034,470.485241775 373.962563979,486.389902552 366.887299865,503.695353932 C 359.812035751,521.000805311 356.104165608,539.69372406 356.038302814,558.393533021 C 355.97244002,577.093341983 359.548584577,595.785620194 366.492129333,613.089790529 C 373.435674088,630.393960863 383.74110038,646.296700089 396.626387465,659.627608774 C 409.511674549,672.958517459 424.966625264,683.707398442 441.820861356,691.09221001 C 458.675097448,698.477021578 476.915295683,702.492245067 495.160900314,702.863252561 C 513.406504945,703.234260056 531.64309501,699.961051557 548.49011493,693.318219888 C 565.33713485,686.675388219 580.781261394,676.668452045 593.652116818,664.079417993 C 606.522972242,651.490383941 616.810359386,636.329449172 623.732258357,619.766978038 C 630.654157329,603.204506904 634.205049466,585.253822637 634.110328812,567.295467294 C 634.015608158,549.33711195 630.275274712,531.385506494 623.16394339,514.821193023 C 616.052612068,498.256879553 605.575801534,483.093181303 592.515540635,470.500462753 C 579.455279736,457.907744203 563.821765634,447.896202515 546.785385027,441.247844535 C 529.749004421,434.599486556 511.323080544,431.319830947 492.888177926,431.68347084 C 474.453275307,432.047110733 456.023814911,436.054046127 438.980361435,443.4296495 C 421.936907959,450.805252872 406.292784636,461.54400556 393.218378666,474.863866326 C 380.143972696,488.183727093 369.649481241,504.074498778 362.516933985,521.365782516 C 355.384386728,538.657066255 351.619302335,557.335538813 351.49629689,576.020623719 C 351.373291445,594.705708626 354.892364948,613.382984916 361.778912948,630.671876173 C 368.665460948,647.96076743 378.913964781,663.847950422 391.742406395,677.163026453 C 404.570848008,690.478102484 419.969030243,701.210874394 436.766577526,708.579301228 C 453.56412481,715.947728063 471.747713911,719.94629116 489.936791759,720.300363391 C 508.125869606,720.654435623 526.306015237,717.36401699 543.096675744,710.70370113 C 559.887336251,704.043385271 575.275188401,694.018690849 588.089857112,681.411625332 C 600.904525823,668.804559815 611.135813935,653.625320364 618.001704209,637.044272197 C 624.867594483,620.463224029 628.362568256,602.493690377 628.212022216,584.516214188 C 628.061476176,566.538737999 624.265410323,548.567740237 617.098442208,531.983763918 C 609.931474092,515.399787599 599.399122378,500.216155956 586.28341854,487.603234414 C 573.167714702,474.990312872 557.4788559,464.958298591 540.387231453,458.289199386 C 523.295607006,451.620100181 504.814540145,448.319434715 486.324598008,448.661797111 C 467.834655872,449.004159508 449.350259423,452.989549766 432.251975957,460.343341384 C 415.153692492,467.697133001 399.454845242,478.413807314 386.325823997,491.711324129 C 373.196802752,505.008840945 362.647804673,520.877003103 355.460862021,538.145412808 C 348.27391937,555.413822513 344.454550811,574.069156532 344.277374995,592.730839486 C 344.100199179,611.39252244 347.565216108,630.046133365 354.397823885,647.311096964 C 361.230431663,664.576060563 371.425111625,680.439053604 384.199848266,693.729678534 C 396.974584908,707.020303465 412.319181067,717.728363124 429.063263707,725.071817728 C 445.807346347,732.415272332 463.937592236,736.388603217 482.073450826,736.71718445 C 500.209309416,737.045765683 518.336359743,733.729597263 535.074051412,727.043274048 C 551.81174308,720.356950832 567.146752857,710.305991484 579.908708159,697.672404713 C 592.67066346,685.038817943 602.849367127,669.832800911 609.662804406,653.2247201 C 616.476241686,636.61663929 619.918893915,618.619817934 619.716160256,600.61480027 C 619.513426597,582.609782606 615.66530705,564.610989598 608.446421627,547.998965576 C 601.227536204,531.386941555 590.643403569,516.175009753 577.476057646,503.533536934 C 564.308711722,490.892064114 548.568349671,480.831247438 531.425363244,474.133096081 C 514.282376818,467.434944725 495.750089249,464.104977351 477.209070097,464.417789469 C 458.668050945,464.730601588 440.132721175,468.686193198 422.983650489,476.009939205 C 405.834579803,483.333685213 390.085091435,494.020066954 376.905577568,507.28704567 C 363.726063701,520.554024386 353.126721496,536.391402915 345.889585597,553.628784918 C 338.652449698,570.866166922 334.783038767,589.490229166 334.555973825,608.120397751 C 334.328908883,626.750566335 337.744189928,645.372420298 344.527217418,662.605385842 C 351.310244909,679.838351385 361.45550018,695.669105278 374.180970063,708.927251493 C 386.906439946,722.185397708 402.20192728,732.860739084 418.897061351,740.171237384 C 435.592195422,747.481735684 453.673652997,751.421872245 471.760885835,751.717022702 C 489.848118674,752.01217316 507.926705813,748.662337515 524.616099147,741.942112214 C 541.305492481,735.221886914 556.592368778,725.136790623 569.306357731,712.468833665 C 582.020346684,699.800876707 592.151251133,684.560256243 598.917058585,667.917340392 C 605.682866038,651.274424542 609.078057831,633.242536538 608.828035372,615.202222277 C 608.578012913,597.161908015 604.682776201,579.12758846 597.416947477,562.479809622 C 590.151118754,545.832030784 579.520216681,530.584115896 566.306277396,517.906433422 C 553.092338111,505.228750948 537.305558773,495.13149805 520.116333331,488.396685626 C 502.927107889,481.661873203 484.348759574,478.295019917 465.761860126,478.570723023 C 447.174960678,478.846426129 428.593931059,482.764685626 411.399343136,490.050878185 C 394.204755212,497.337070744 378.409932215,507.985677702 365.185268474,521.214662086 C 351.960604733,534.44364647 341.316297408,550.242811119 334.034383268,567.4417615 C 326.752469128,584.64071188 322.838466838,603.226124761 322.566999524,621.817428067 C 322.29553221,640.408731374 325.666599873,658.991504145 332.40560506,676.185174431 C 339.144610248,693.378844717 349.246034296,709.170089287 361.927866108,722.388513981 C 374.609697921,735.606938675 389.861740337,746.242346333 406.513624696,753.512700606 C 423.165509056,760.78305488 441.203912127,764.682837104 459.248287704,764.937424826 C 477.292663281,765.192012547 495.328590402,761.801405765 511.975522979,755.040202855 C 528.622455555,748.278999945 543.867070355,738.152719572 556.53899907,725.443374007 C 569.210927785,712.734028442 579.299973253,697.451814847 586.024124965,680.767103307 C 592.748276677,664.082391767 596.102015967,646.008505515 595.810746205,627.925992435 C 595.519476442,609.843479354 591.583197625,591.766760407 584.276533936,575.076383611 C 576.969870247,558.386006815 566.29834035,543.095295402 553.0439823,530.374619861 C 539.78962425,517.653944319 523.962635208,507.51350181 506.733411025,500.735305275 C 489.504186841,493.95710874 470.886050748,490.546676843 452.259576365,490.778608897 C 433.633101982,491.010540952 415.012710272,494.884836957 397.778974963,502.126875665 C 380.545239654,509.368914372 364.711483977,519.973177118 351.448104103,533.157629026 C 338.184724228,546.342080933 327.501917316,562.096524843 320.181721956,579.250568335 C 312.861526597,596.404611827 308.909461454,614.94493167 308.600151455,633.490957924 C 308.290841455,652.036984177 311.6242866,670.574295877 318.325891216,687.722323227 C 325.027495831,704.870350577 335.091741254,720.615770344 347.736618146,733.788190535 C 360.381495037,746.960610727 375.596806236,757.549834184 392.212184821,764.77382674 C 408.827563406,771.997819296 426.829686143,775.851062288 444.838008545,776.058935462 C 462.846330946,776.266808636 480.846432048,772.829311992 497.457767457,766.021046124 C 514.069102866,759.212780256 529.27834935,749.039263826 541.915140273,736.282511342 C 554.551931195,723.525758858 564.606069396,708.19596748 571.295546015,691.463509544 C 577.985022633,674.731051608 581.304319005,656.609250347 580.978840128,638.47865591 C 580.65336125,620.348061472 576.683107122,602.223094821 569.342703532,585.484306255 C 562.002299942,568.745517688 551.297265554,553.406230439 538.009640008,540.636817293 C 524.722014462,527.867404147 508.861994919,517.678062264 491.599978791,510.850806899 C 474.337962663,504.023551535 455.687273181,500.563901351 437.028485506,500.746457991 C 418.369697831,500.92901463 399.717232926,504.753778093 382.451666034,511.94612947 C 365.186099142,519.138480848 349.320753496,529.692901477 336.026026758,542.827358839 C 322.73130002,555.961816201 312.017389352,571.666113136 304.666334813,588.769859595 C 297.315280275,605.873606055 293.332600531,624.363478807 292.992921956,642.858910297 C 292.653243382,661.354341788 295.956565976,679.840911053 302.628295491,696.938050695 C 309.300025007,714.035190338 319.334642779,729.729577124 331.950140871,742.850821476 C 344.565638963,755.972065828 359.751820215,766.509970585 376.338319079,773.68250401 C 392.924817944,780.855037435 410.898311191,784.656680863 428.878255683,784.812816481 C 446.858200176,784.968952099 464.830174951,781.479579907 481.413636946,774.619302951 C 497.997098942,767.759025995 513.178724925,757.533362939 525.788149565,744.724330756 C 538.397574205,731.915298572 548.424600342,716.533094421 555.087220398,699.748093118 C 561.749840453,682.963091814 565.042535763,664.788616592 564.690712582,646.605220089 C 564.338889401,628.421823586 560.342547729,610.243926766 552.976314587,593.45208243 C 545.610081445,576.660238095 534.879475497,561.267769476 521.566537593,548.445051874 C 508.253599689,535.622334273 492.368526991,525.379564849 475.081718093,518.498761385 C 457.794909195,511.61795792 439.119687331,508.104639078 420.43662882,508.233409038 C 401.753570308,508.362178997 383.077096113,512.133037759 365.787782614,519.271368964 C 348.498469114,526.409700169 332.609639542,536.909985154 319.291692671,549.99019396 C 305.9737458,563.070402766 295.236878791,578.720338232 287.863132791,595.769612883 C 280.489386791,612.818887534 276.484280463,631.254178136 276.122441243,649.694919717 C 275.760602023,668.135661298 279.042029911,686.567432893 285.692131694,703.609669698 C 292.342233477,720.651906502 302.355490491,736.291285282 314.949895809,749.35741906 C 327.544301128,762.423552839 342.709657589,772.906244456 359.275600634,780.023464784 C 375.841543678,787.140685112 393.794750073,790.886915487 411.754677643,790.987540717 C 429.714605212,791.088165947 447.666832994,787.54318603 464.230818857,780.627206645 C 480.79480472,773.711227259 495.957225433,763.429767067 508.547716574,750.56484568 C 521.138207715,737.699924294 531.146572124,722.261738872 537.790803103,705.420666879 C 544.435034083,688.579594885 547.709612971,670.348959552 547.339946877,652.109316175 C 546.970280783,633.869672798 542.956369708,615.635442339 535.572841503,598.787180265 C 528.189313299,581.938918191 517.441686629,566.489947733 504.112003148,553.610646865 C 490.782319668,540.731345996 474.880776539,530.431911878 457.577773134,523.49436497 C 440.27476973,516.556818062 421.583629284,512.986677028 402.884928868,513.058548734 C 384.186228452,513.13042044 365.494389029,516.844304887 348.189987705,523.925588411 C 330.885586382,531.006871934 314.98194639,541.45003587 301.649467203,554.473052962 C 288.316988017,567.496070053 277.565866796,583.088743139 270.178145362,600.080687452 C 262.790423929,617.072631764 258.771620946,635.45052407 258.396364496,653.833802112 C 258.021108047,672.217080153 261.289398132,690.591322966 267.926642159,707.575968464 C 274.563886187,724.560613962 284.564565492,740.142338913 297.146673744,753.150759066 C 309.728781996,766.159179219 324.882122033,776.584097413 341.436329864,783.643487255 C 357.990537694,790.702877096 375.932290086,794.391219921 393.881045404,794.433903273 C 411.829800721,794.476586625 429.771138003,790.873610504 446.324515634,783.899583329 C 462.877893264,776.925556154 478.029988011,766.585996589 490.610435942,753.662926992 C 503.190883873,740.739857395 513.189487826,725.243474927 519.824241568,708.344159802 C 526.458995309,691.444844677 529.724380175,673.155920128 529.345803712,654.857944206 C 528.967227248,636.559968284 524.944689455,618.267361953 517.552818592,601.360683439 C 510.16094773,584.454004925 499.405262461,568.94657746 486.067804823,556.00878178 C 472.730347184,543.070986101 456.821314338,532.713019369 439.511106011,525.716904812 C 422.200897684,518.720790254 403.502837111,515.092046536 384.797501689,515.105283295 C 366.092166268,515.118520053 347.393976962,518.773737288 330.083511178,525.796324111 C 312.773045394,532.818910933 296.863626364,543.203348678 283.525653835,556.167612867 C 270.187681305,569.131877055 259.431352438,584.665770526 252.0387093,601.598911291 C 244.646066161,618.532052055 240.622627416,636.851116881 240.243021365,655.175546291 C 239.863415314,673.499975701 243.127641959,691.815348732 249.761108899,708.741106082 C 256.39457584,725.666863432 266.391764412,741.189681867 278.970668449,754.139179924 C 291.549572486,767.088677981 306.699994826,777.454658498 323.251571617,784.455097869 C 339.803148407,791.455537239 357.742556415,795.084916799 375.689254116,795.06862688 C 393.635951818,795.052336961 411.57551825,791.390377564 428.127411883,784.357359897 C 444.679305516,777.32434223 459.830203116,766.925784957 472.409740807,753.943713225 C 484.989278499,740.961641494 494.98725912,725.406252465 501.621676468,708.447929143 C 508.256093815,691.489605822 511.521429224,673.14167144 511.143090243,654.784686841 C 510.764751261,636.427702242 506.74273789,618.076088389 499.351678363,601.110406297 C 491.960618837,584.144724205 481.206031819,568.578297108 467.869959295,555.581508532 C 454.53388677,542.584719955 438.6265259,532.167767062 421.318276334,525.112675868 C 404.010026767,518.057584674 385.314211737,514.369873844 366.611408537,514.324155804 C 347.908605337,514.278437764 329.213234931,517.874712514 311.905874589,524.838371951 C 294.598514248,531.802031389 278.692487205,542.127556851 265.358193047,555.032926642 C 252.023898889,567.938296434 241.271534777,583.413313394 233.883142589,600.287598319 C 226.494750402,617.161883245 222.475848803,635.422112902 222.101065882,653.687730597 C 221.72628296,671.953348292 224.995618716,690.209933061 231.634480507,707.076928382 C 238.273342298,723.943923703 248.276211462,739.408006343 260.861081561,752.298797616 C 273.44595166,765.189588889 288.602625535,775.496891633 305.160739035,782.438685016 C 321.718852535,789.380478399 339.665082429,792.951243757 357.618886869,792.876374194 C 375.57269131,792.801504632 393.519649334,789.081000148 410.079219063,781.989474721 C 426.638788791,774.897949295 441.797646991,764.440921588 454.385429409,751.400419514 C 466.973211827,738.35991744 476.979721303,722.74613816 483.622951228,705.72946744 C 490.266181153,688.71279672 493.540612864,670.306557793 493.171653478,651.891314258 C 492.802694092,633.476070723 488.79034361,615.066243544 481.409229809,598.042396489 C 474.028116009,581.018549434 463.283757554,565.394005736 449.958195945,552.33915167 C 436.632634337,539.284297605 420.736066736,528.809330333 403.438892281,521.696278615 C 386.141717826,514.583226897 367.457259751,510.837609398 348.76609481,510.734041282 C 330.07492987,510.630473165 311.391479029,514.168954432 294.096318995,521.074879712 C 276.801158961,527.980804993 260.907612968,538.248655623 247.586080011,551.096412637 C 234.264547054,563.944169651 223.525224294,579.361635887 216.150152994,596.178434862 C 208.775081694,612.995233838 204.769780519,631.198042322 204.408876912,649.406306333 C 204.047973304,667.614570344 207.331467266,685.813868919 213.984765486,702.623648247 C 220.638063706,719.433427574 230.65564752,734.84036442 243.255509796,747.6740828 C 255.855372073,760.507801181 271.027315651,770.758103934 287.600975659,777.642972924 C 304.174635667,784.527841914 322.136688873,788.041758477 340.106592681,787.910118405 C 358.07649649,787.778478333 376.039829939,784.001281626 392.616050373,776.853144942 C 409.192270807,769.705008258 424.368054994,759.191450261 436.973037881,746.094501537 C 449.578020768,732.997552813 459.602005194,717.327410523 466.262983723,700.254463099 C 472.923962253,683.181515675 476.216416223,664.719086349 475.865751899,646.247741378 C 475.515087576,627.776396407 471.521304958,609.310556754 464.159030947,592.230788838 C 456.796756935,575.151020921 446.071510194,559.470647973 432.765331319,546.360058909 C 419.459152445,533.249469846 403.582238599,522.718861827 386.30498799,515.550266246 C 369.027737381,508.381670665 350.363473243,504.580606185 331.692771377,504.421690593 C 313.02206951,504.262775001 294.359350879,507.746008298 277.085191211,514.596787725 C 259.811031543,521.447567153 243.938754071,531.660374049 230.638756785,544.453192049 C 217.3387595,557.246010048 206.621239562,572.608641991 199.268237203,589.370713988 C 191.915234844,606.132785984 187.932268728,624.280974802 187.593965243,642.434729044 C 187.255661759,660.588483287 190.562020906,678.733381991 197.238448293,695.488873915 C 203.914875679,712.24436584 213.955852642,727.597127753 226.579370942,740.376786232 C 239.202889242,753.156444711 254.398751719,763.352802594 270.99659237,770.183844296 C 287.594433021,777.014885998 305.580928614,780.475092856 323.575535398,780.2898632 C 341.570142182,780.104633545 359.558439194,776.273967377 376.1598826,769.072483883 C 392.761326005,761.871000389 407.962592571,751.304218233 420.59331604,738.154170518 C 433.224039508,725.004122803 443.274022718,709.28100669 449.961257005,692.155213115 C 456.648491292,675.02941954 459.967457993,656.514271737 459.64356212,637.990338455 C 459.319666246,619.466405172 455.352907798,600.948107374 448.017912397,583.816013959 C 440.682916996,566.683920543 429.985203307,550.951354744 416.706810625,537.788707943 C 403.428417942,524.626061142 387.579543427,514.043530502 370.330583962,506.823149869 C 353.081624498,499.602769236 334.445903318,495.750057275 315.803994873,495.539634215 C 297.162086428,495.329211155 278.528411681,498.761076996 261.283544988,505.56063141 C 244.038678296,512.360185824 228.195942889,522.521910148 214.925735362,535.263790434 C 201.655527835,548.005670719 190.968045348,563.317509806 183.645326714,580.028936205 C 176.322608079,596.740362605 172.370171959,614.838053086 172.0626433,632.941458639 C 171.755114641,651.044864192 175.092493443,669.139563854 181.800183846,685.845008759 C 188.507874249,702.550453663 198.58035759,717.853320578 211.23562414,730.583238439 C 223.89089069,743.3131563 239.11874329,753.459927948 255.748814422,760.241540139 C 272.378885555,767.023152331 290.397851988,770.434086404 308.425168436,770.199743021 C 326.452484885,769.965399638 344.473730385,766.085778798 361.108359544,758.835502004 C 377.742988703,751.585225209 392.977678288,740.969811124 405.642060461,727.77129515 C 418.306442633,714.572779177 428.390320232,698.801358476 435.11168299,681.62742627 C 441.833045748,664.453494063 445.186375002,645.890373583 444.897074139,627.318635848 C 444.607773275,608.746898113 440.675842294,590.180964086 433.375905171,573.001404919 C 426.075968048,555.821845752 415.413543446,540.041984677 402.170668992,526.832215314 C 388.927794538,513.622445952 373.114667393,502.992965462 355.901682749,495.725809914 C 338.688698106,488.458654366 320.089179197,484.559342424 301.483698762,484.302496519 C 282.878218327,484.045650615 264.28119733,487.431270748 247.073208392,494.18475878 C 229.865219453,500.938246811 214.059585807,511.054084076 200.826702291,523.750258797 C 187.593818774,536.446433518 176.94388255,551.712748534 169.658930652,568.378834511 C 162.373978754,585.044920487 158.459529847,603.097454191 158.19020708,621.15588875 C 157.920884312,639.21432331 161.296687684,657.264237761 168.043019519,673.925085354 C 174.789351354,690.585932948 184.900692988,705.844390452 197.595032857,718.530088903 C 210.289372725,731.215787354 225.556513667,741.318529592 242.226086308,748.056304457 C 258.895658949,754.794079322 276.954340057,758.16136815 295.021582469,757.883573669 C 313.08882488,757.605779188 331.150207632,753.682901398 347.825183432,746.389563844 C 364.500159232,739.096226291 379.775404849,728.437947639 392.480550525,715.196765318 C 405.185696201,701.955582997 415.310544775,686.141694169 422.073084044,668.925494062 C 428.835623313,651.709293955 432.230334612,633.104105802 431.982619371,614.490502611 C 431.73490413,595.87689942 427.84476235,577.269302155 420.586816029,560.048283936 C 413.328869707,542.827265717 402.708637509,527.006149778 389.508155065,513.755331689 C 376.307672621,500.5045136 360.537137092,489.834190523 343.366941656,482.526400457 C 326.196746221,475.21861039 307.640214112,471.278871999 289.077916037,470.981809627 C 270.515617962,470.684747255 251.961974884,474.030360903 234.797557372,480.744054322 C 217.63313986,487.45774774 201.871271148,497.534002266 188.682344005,510.190807993 C 175.493416861,522.84761372 164.887628448,538.074773487 157.647013712,554.701919811 C 150.406398975,571.329066135 146.53647658,589.342875784 146.31186757,607.362803715 C 146.087258559,625.382731647 149.507962933,643.394356899 156.299380891,660.017134532 C 163.09079885,676.639912165 173.247411729,691.860518947 185.987205823,704.508587705 C 198.726999917,717.156656463 214.039778065,727.221990036 230.755168734,733.922579035 C 247.470559404,740.623168033 265.575239363,743.953493793 283.688659273,743.638960789 C 301.802079182,743.324427784 319.909818079,739.365036016 336.63132648,732.035410758 C 353.35283488,724.7057855 368.674789552,714.011445415 381.42681853,700.73442964 C 394.178847507,687.457413865 404.350753629,671.607919559 411.160522466,654.356343637 C 417.970291303,637.104767715 421.412404191,618.464433409 421.212260318,599.815915388 C 421.012116446,581.167397368 417.169715813,562.525116596 409.95967816,545.269647834 C 402.749640508,528.014179073 392.1774845,512.158845555 379.025243494,498.87404447 C 365.873002488,485.589243385 350.150873645,474.885171893 333.029247855,467.54386959 C 315.907622065,460.202567287 297.39982256,456.229552838 278.886417743,455.899452159 C 260.373012926,455.56935148 241.86842376,458.882164572 224.753218495,465.563296738 C 207.63801323,472.244428904 191.925515099,482.28836148 178.786114537,494.913086088 C 165.646713975,507.537810696 155.090608142,522.733130175 147.899829637,539.328678549 C 140.709051132,555.924226922 136.889118618,573.906680957 136.714650775,591.895497095 C 136.540182932,609.884313233 140.01117976,627.86507051 146.85303908,644.457225449 C 153.6948984,661.049380387 163.902101549,676.239609754 176.692632429,688.857547813 C 189.483163308,701.475485872 204.846824757,711.510935462 221.613242837,718.181888606 C 238.379660916,724.85284175 256.535512395,728.153779786 274.700245513,727.810108576 C 292.864978631,727.466437366 311.024172426,723.478156911 327.797274981,716.119893851 C 344.570377536,708.761630792 359.944065618,698.038903791 372.747964815,684.733753326 C 385.551864012,671.428602862 395.775777163,655.551226096 402.63768738,638.272021258 C 409.499597596,620.992816421 412.993986214,602.325106746 412.846249949,583.649468197 C 412.698513685,564.973829648 408.908652537,546.304683188 401.751283764,529.02260485 C 394.593914991,511.740526512 384.074557256,495.858839529 370.97524142,482.547942336 C 357.875925584,469.237045143 342.206848807,458.5071349 325.13839947,451.140252426 C 308.069950134,443.773369952 289.615451471,439.77503391 271.155469363,439.419871416 C 252.695487255,439.064708922 234.244442665,442.352719976 217.182901312,449.009311053 C 200.121359958,455.665902131 184.462645074,465.685554568 171.37714455,478.286261134 C 158.291644026,490.886967701 147.789555023,506.058531238 140.652907585,522.630586889 C 133.516260147,539.202642541 129.750572938,557.161867075 129.630462071,575.127718032 C 129.510351205,593.093568989 133.035816681,611.051625405 139.932253746,627.621344876 C 146.828690811,644.191064347 157.090580801,659.35912364 169.935905031,671.955158066 C 182.781229261,684.551192492 198.19979057,694.565004891 215.021212425,701.21458831 C 231.842634279,707.864171728 250.053593446,711.144007503 268.273535561,710.779502495 C 286.493477675,710.414997487 304.707981774,706.406151697 321.536493326,699.027592738 C 338.365004877,691.649033778 353.794200647,680.906280313 366.6537036,667.581373767 C 379.513206553,654.256467221 389.792819528,638.359604756 396.710523,621.061185523 C 403.628226473,603.762766291 407.17850178,585.076113524 407.086742995,566.381804083 C 406.99498421,547.687494643 403.261191333,528.999949491 396.159978968,511.699745532 C 389.058766604,494.399541572 378.595653417,478.500002037 365.552667607,465.171526206 C 352.509681797,451.843050374 336.897020526,441.095835408 319.885069507,433.711922943 C 302.873118487,426.328010477 284.475200952,422.312919177 266.071880108,421.941276949 C 247.668559263,421.56963472 229.274256072,424.841441565 212.26953357,431.482104724 C 195.264811067,438.122767883 179.662992486,448.126768692 166.634463027,460.712100663 C 153.605933568,473.297432634 143.160890391,488.453898606 136.081360843,505.011134438 C 129.001831295,521.56837027 125.29333404,539.51305273 125.230482487,557.464640046 C 125.167630934,575.416227362 128.750425082,593.360298569 135.704257468,609.916311926 C 142.658089853,626.472325283 152.977441813,641.626957555 165.880291943,654.209844691 C 178.783142073,666.792731827 194.259293213,676.793676664 211.138366106,683.430672859 C 228.017438999,690.067669054 246.286110411,693.335197942 264.56382325,692.958666968 C 282.841536089,692.582135994 301.11386939,688.561545158 318.000265887,681.171522627 C 334.886662384,673.781500096 350.373798844,663.027564535 363.291295489,649.691757897 C 376.208792135,636.355951259 386.546451806,620.448470705 393.522252233,603.13971589 C 400.498052661,585.830961075 404.106475181,567.134255232 404.072911118,548.430175697 C 404.039347055,529.726096162 400.363796408,511.029063898 393.320871029,493.719656255 C 386.27794565,476.410248612 375.873164202,460.501788824 362.888552128,447.164676592 C 349.903940054,433.82756436 334.349694514,423.071996845 317.39619846,415.680016077 C 300.442702405,408.28803531 282.103279069,404.265159954 263.75848889,403.886018286 C 245.413698711,403.506876618 227.077962653,406.771468638 210.131840981,413.405201928 C 193.185719309,420.038935218 177.642535256,430.036291116 164.672671249,442.615263445 C 151.702807243,455.194235774 141.316460444,470.344627374 134.295655423,486.896074393 C 127.274850402,503.447521411 123.625105823,521.386700616 123.621032316,539.333070493 C 123.61695881,557.279440371 127.258556376,575.218579959 134.271214768,591.769947747 C 141.283873161,608.321315535 151.662073717,623.471588291 164.623792251,636.050402166 C 177.585510785,648.629216042 193.120550136,658.626373877 210.058528262,665.259869505 C 226.996506387,671.893365134 245.324100055,675.157679893 263.660749384,674.778221377 C 281.997398713,674.398762862 300.328682741,670.375531073 317.274041412,662.983154303 C 334.219400083,655.590777533 349.765510165,644.834774445 362.741989091,631.497187092 C 375.718468018,618.159599739 386.115118629,602.250625281 393.149915865,584.940663444 C 400.184713102,567.630701608 403.852138301,548.933075624 403.877579996,530.228362874 C 403.903021691,511.523650124 400.286479881,492.82627157 393.302563628,475.516804579 C 386.318647374,458.207337588 375.97287534,442.299105394 363.047270178,428.962507686 C 350.121665016,415.625909979 334.626423887,404.871143919 317.73192695,397.4802515 C 300.837430014,390.089359081 282.557000503,386.067858967 264.271196067,385.690379368 C 245.985391632,385.312899769 227.708633235,388.579440686 210.821478354,395.21540961 C 193.934323472,401.851378533 178.450095338,411.851256799 165.539173592,424.433038114 C 152.628251846,437.014819429 142.300833648,452.168306631 135.338940782,468.723135721 C 128.377047916,485.277964812 124.786199046,503.220812559 124.841002017,521.171137275 C 124.895804988,539.121461992 128.596259801,557.064842715 135.667753426,573.620737735 C 142.739247052,590.176632755 153.176260826,605.331718838 166.196767782,617.915631909 C 179.217274739,630.499544981 194.811077716,640.502087881 211.807791894,647.141254188 C 228.804506072,653.780420495 247.190808217,657.050691545 265.586135673,656.677474654 C 283.981463129,656.304257763 302.371394932,652.287552931 319.375368254,644.90198814 C 336.379341577,637.51642335 351.984033185,626.767517266 365.019057744,613.437311604 C 378.054082303,600.107105942 388.509242651,584.205797864 395.602510964,566.903786731 C 402.695779277,549.601775598 406.42163689,530.912384645 406.505469574,512.21619086 C 406.589302259,493.519997076 403.031110013,474.831421423 396.10549914,457.531040853 C 389.179888267,440.230660283 378.892377429,424.331798029 366.024986524,411.004853339 C 353.157595619,397.677908648 337.720521806,386.933078682 320.884142497,379.552404963 C 304.047763187,372.171731245 285.825401613,368.160732437 267.597612679,367.794036255 C 249.369823744,367.427340073 231.151028412,370.704946517 214.321781418,377.352262554 C 197.492534424,383.99957859 182.066159001,394.011085557 169.213032052,406.604776608 C 156.359905102,419.19846766 146.090223789,434.364145636 139.186007163,450.93144596"
     style="stroke:#000000;fill:none" />
</svg>
